<svg width="103" height="108" viewBox="0 0 103 108" fill="none" xmlns="http://www.w3.org/2000/svg">
<rect width="103" height="108" rx="51.5" fill="#FFDD2D"/>
<g clip-path="url(#clip0_63_413)">
<path d="M53.0003 24.3398C52.4782 24.1172 51.9188 24 51.3345 24C50.7502 24 50.1908 24.1172 49.6687 24.3398L26.2607 33.7031C23.5259 34.793 21.4871 37.3359 21.4996 40.4063C21.5617 52.0313 26.6337 73.3008 48.0527 82.9688C50.1287 83.9063 52.5403 83.9063 54.6164 82.9688C76.0354 73.3008 81.1073 52.0313 81.1695 40.4063C81.1819 37.3359 79.1432 34.793 76.4083 33.7031L53.0003 24.3398ZM39.4005 42.0938C39.4005 41.4141 39.9848 40.875 40.6934 40.875H40.7182C41.1409 40.875 41.5263 41.0625 41.7749 41.3789L46.7474 47.625C47.1203 48.0938 47.717 48.375 48.3386 48.375H54.3056C54.9271 48.375 55.5238 48.0938 55.8968 47.625L60.8693 41.3789C61.1179 41.0625 61.5157 40.875 61.9259 40.875H61.9508C62.6718 40.875 63.2436 41.4258 63.2436 42.0938V55.875C63.2436 62.0859 57.8982 67.125 51.3096 67.125C44.7211 67.125 39.3757 62.0859 39.3757 55.875V42.0938H39.4005ZM46.362 57.75C46.8895 57.75 47.3954 57.5525 47.7685 57.2008C48.1415 56.8492 48.351 56.3723 48.351 55.875C48.351 55.3777 48.1415 54.9008 47.7685 54.5492C47.3954 54.1975 46.8895 54 46.362 54C45.8345 54 45.3286 54.1975 44.9556 54.5492C44.5826 54.9008 44.373 55.3777 44.373 55.875C44.373 56.3723 44.5826 56.8492 44.9556 57.2008C45.3286 57.5525 45.8345 57.75 46.362 57.75ZM58.296 55.875C58.296 55.3777 58.0864 54.9008 57.7134 54.5492C57.3404 54.1975 56.8345 54 56.307 54C55.7795 54 55.2736 54.1975 54.9006 54.5492C54.5276 54.9008 54.318 55.3777 54.318 55.875C54.318 56.3723 54.5276 56.8492 54.9006 57.2008C55.2736 57.5525 55.7795 57.75 56.307 57.75C56.8345 57.75 57.3404 57.5525 57.7134 57.2008C58.0864 56.8492 58.296 56.3723 58.296 55.875Z" fill="#1E1D1B"/>
</g>
<defs>
<clipPath id="clip0_63_413">
<rect width="60" height="60" fill="white" transform="translate(21.5 24)"/>
</clipPath>
</defs>
</svg>
