<svg width="40" height="42" viewBox="0 0 40 42" fill="none" xmlns="http://www.w3.org/2000/svg">
<rect width="40" height="42" rx="20" fill="#FFDD2D"/>
<g clip-path="url(#clip0_158_223)">
<path d="M20.5757 9.63027C20.3755 9.54492 20.1611 9.5 19.9371 9.5C19.7131 9.5 19.4987 9.54492 19.2985 9.63027L10.325 13.2195C9.27662 13.6373 8.49507 14.6121 8.49984 15.7891C8.52367 20.2453 10.468 28.3986 18.679 32.1047C19.4748 32.4641 20.3993 32.4641 21.1952 32.1047C29.4062 28.3986 31.3505 20.2453 31.3743 15.7891C31.3791 14.6121 30.5976 13.6373 29.5491 13.2195L20.5757 9.63027ZM15.3622 16.4359C15.3622 16.1754 15.5862 15.9688 15.8578 15.9688H15.8673C16.0294 15.9688 16.1771 16.0406 16.2724 16.1619L18.1786 18.5563C18.3216 18.7359 18.5503 18.8438 18.7886 18.8438H21.076C21.3143 18.8438 21.5431 18.7359 21.686 18.5563L23.5922 16.1619C23.6876 16.0406 23.8401 15.9688 23.9973 15.9688H24.0068C24.2832 15.9688 24.5025 16.1799 24.5025 16.4359V21.7188C24.5025 24.0996 22.4533 26.0313 19.9276 26.0313C17.4018 26.0313 15.3527 24.0996 15.3527 21.7188V16.4359H15.3622ZM18.0309 22.4375C18.2331 22.4375 18.427 22.3618 18.57 22.227C18.713 22.0922 18.7934 21.9094 18.7934 21.7188C18.7934 21.5281 18.713 21.3453 18.57 21.2105C18.427 21.0757 18.2331 21 18.0309 21C17.8287 21 17.6347 21.0757 17.4917 21.2105C17.3487 21.3453 17.2684 21.5281 17.2684 21.7188C17.2684 21.9094 17.3487 22.0922 17.4917 22.227C17.6347 22.3618 17.8287 22.4375 18.0309 22.4375ZM22.6058 21.7188C22.6058 21.5281 22.5254 21.3453 22.3825 21.2105C22.2395 21.0757 22.0455 21 21.8433 21C21.6411 21 21.4471 21.0757 21.3041 21.2105C21.1611 21.3453 21.0808 21.5281 21.0808 21.7188C21.0808 21.9094 21.1611 22.0922 21.3041 22.227C21.4471 22.3618 21.6411 22.4375 21.8433 22.4375C22.0455 22.4375 22.2395 22.3618 22.3825 22.227C22.5254 22.0922 22.6058 21.9094 22.6058 21.7188Z" fill="#1E1D1B"/>
</g>
<defs>
<clipPath id="clip0_158_223">
<rect width="23" height="23" fill="white" transform="translate(8.5 9.5)"/>
</clipPath>
</defs>
</svg>
